<mxfile host="app.diagrams.net" agent="Mozilla/5.0 (Windows NT 10.0; Win64; x64) AppleWebKit/537.36 (KHTML, like Gecko) Chrome/127.0.0.0 Safari/537.36" version="24.7.7">
  <diagram name="第 1 页" id="JWrh12a5ofCbuKyQh7Sv">
    <mxGraphModel dx="1434" dy="841" grid="1" gridSize="10" guides="1" tooltips="1" connect="1" arrows="1" fold="1" page="1" pageScale="1" pageWidth="1169" pageHeight="827" math="0" shadow="0">
      <root>
        <mxCell id="0" />
        <mxCell id="1" parent="0" />
        <mxCell id="1WofLLIVv_YYoYcuGVh5-64" value="" style="rounded=0;whiteSpace=wrap;html=1;dashed=1;" parent="1" vertex="1">
          <mxGeometry x="160" y="220" width="1080" height="650" as="geometry" />
        </mxCell>
        <mxCell id="1WofLLIVv_YYoYcuGVh5-69" value="" style="rounded=0;whiteSpace=wrap;html=1;fillColor=#ffe6cc;strokeColor=#d79b00;" parent="1" vertex="1">
          <mxGeometry x="900" y="490" width="200" height="260" as="geometry" />
        </mxCell>
        <mxCell id="1WofLLIVv_YYoYcuGVh5-57" value="" style="rounded=0;whiteSpace=wrap;html=1;fillColor=#f5f5f5;strokeColor=#666666;fontColor=#333333;" parent="1" vertex="1">
          <mxGeometry x="220" y="630" width="610" height="110" as="geometry" />
        </mxCell>
        <mxCell id="1WofLLIVv_YYoYcuGVh5-46" value="" style="rounded=0;whiteSpace=wrap;html=1;fillColor=#d5e8d4;strokeColor=#82b366;" parent="1" vertex="1">
          <mxGeometry x="440" y="240" width="170" height="220" as="geometry" />
        </mxCell>
        <mxCell id="1WofLLIVv_YYoYcuGVh5-72" style="edgeStyle=orthogonalEdgeStyle;rounded=0;orthogonalLoop=1;jettySize=auto;html=1;exitX=1;exitY=0.5;exitDx=0;exitDy=0;entryX=0;entryY=0.5;entryDx=0;entryDy=0;" parent="1" source="1WofLLIVv_YYoYcuGVh5-44" target="1WofLLIVv_YYoYcuGVh5-69" edge="1">
          <mxGeometry relative="1" as="geometry" />
        </mxCell>
        <mxCell id="1WofLLIVv_YYoYcuGVh5-44" value="" style="rounded=0;whiteSpace=wrap;html=1;fillColor=#e1d5e7;strokeColor=#9673a6;" parent="1" vertex="1">
          <mxGeometry x="220" y="490" width="610" height="110" as="geometry" />
        </mxCell>
        <mxCell id="1WofLLIVv_YYoYcuGVh5-42" value="" style="rounded=0;whiteSpace=wrap;html=1;fillColor=#dae8fc;strokeColor=#6c8ebf;" parent="1" vertex="1">
          <mxGeometry x="320" y="90" width="400" height="120" as="geometry" />
        </mxCell>
        <mxCell id="1WofLLIVv_YYoYcuGVh5-6" style="edgeStyle=orthogonalEdgeStyle;rounded=0;orthogonalLoop=1;jettySize=auto;html=1;exitX=0.5;exitY=1;exitDx=0;exitDy=0;entryX=0.5;entryY=0;entryDx=0;entryDy=0;" parent="1" source="1WofLLIVv_YYoYcuGVh5-2" target="1WofLLIVv_YYoYcuGVh5-4" edge="1">
          <mxGeometry relative="1" as="geometry" />
        </mxCell>
        <mxCell id="1WofLLIVv_YYoYcuGVh5-2" value="web" style="rounded=0;whiteSpace=wrap;html=1;" parent="1" vertex="1">
          <mxGeometry x="370" y="120" width="120" height="60" as="geometry" />
        </mxCell>
        <mxCell id="1WofLLIVv_YYoYcuGVh5-7" style="edgeStyle=orthogonalEdgeStyle;rounded=0;orthogonalLoop=1;jettySize=auto;html=1;exitX=0.5;exitY=1;exitDx=0;exitDy=0;" parent="1" source="1WofLLIVv_YYoYcuGVh5-3" edge="1">
          <mxGeometry relative="1" as="geometry">
            <mxPoint x="520" y="270" as="targetPoint" />
          </mxGeometry>
        </mxCell>
        <mxCell id="1WofLLIVv_YYoYcuGVh5-3" value="app" style="rounded=0;whiteSpace=wrap;html=1;" parent="1" vertex="1">
          <mxGeometry x="550" y="120" width="120" height="60" as="geometry" />
        </mxCell>
        <mxCell id="1WofLLIVv_YYoYcuGVh5-8" style="edgeStyle=orthogonalEdgeStyle;rounded=0;orthogonalLoop=1;jettySize=auto;html=1;exitX=0.5;exitY=1;exitDx=0;exitDy=0;entryX=0.5;entryY=0;entryDx=0;entryDy=0;" parent="1" source="1WofLLIVv_YYoYcuGVh5-4" target="1WofLLIVv_YYoYcuGVh5-5" edge="1">
          <mxGeometry relative="1" as="geometry" />
        </mxCell>
        <mxCell id="1WofLLIVv_YYoYcuGVh5-4" value="Nginx&lt;br&gt;(反向代理，证书配置)" style="rounded=0;whiteSpace=wrap;html=1;" parent="1" vertex="1">
          <mxGeometry x="460" y="270" width="120" height="60" as="geometry" />
        </mxCell>
        <mxCell id="1WofLLIVv_YYoYcuGVh5-10" style="edgeStyle=orthogonalEdgeStyle;rounded=0;orthogonalLoop=1;jettySize=auto;html=1;exitX=1;exitY=0.5;exitDx=0;exitDy=0;entryX=0;entryY=0.5;entryDx=0;entryDy=0;" parent="1" source="1WofLLIVv_YYoYcuGVh5-5" target="1WofLLIVv_YYoYcuGVh5-9" edge="1">
          <mxGeometry relative="1" as="geometry" />
        </mxCell>
        <mxCell id="1WofLLIVv_YYoYcuGVh5-12" style="edgeStyle=orthogonalEdgeStyle;rounded=0;orthogonalLoop=1;jettySize=auto;html=1;exitX=0.5;exitY=1;exitDx=0;exitDy=0;entryX=0.5;entryY=0;entryDx=0;entryDy=0;" parent="1" source="1WofLLIVv_YYoYcuGVh5-5" target="1WofLLIVv_YYoYcuGVh5-11" edge="1">
          <mxGeometry relative="1" as="geometry" />
        </mxCell>
        <mxCell id="1WofLLIVv_YYoYcuGVh5-17" style="edgeStyle=orthogonalEdgeStyle;rounded=0;orthogonalLoop=1;jettySize=auto;html=1;exitX=0.5;exitY=1;exitDx=0;exitDy=0;entryX=0.5;entryY=0;entryDx=0;entryDy=0;" parent="1" source="1WofLLIVv_YYoYcuGVh5-5" target="1WofLLIVv_YYoYcuGVh5-13" edge="1">
          <mxGeometry relative="1" as="geometry" />
        </mxCell>
        <mxCell id="1WofLLIVv_YYoYcuGVh5-18" style="edgeStyle=orthogonalEdgeStyle;rounded=0;orthogonalLoop=1;jettySize=auto;html=1;exitX=0.5;exitY=1;exitDx=0;exitDy=0;" parent="1" source="1WofLLIVv_YYoYcuGVh5-5" target="1WofLLIVv_YYoYcuGVh5-14" edge="1">
          <mxGeometry relative="1" as="geometry" />
        </mxCell>
        <mxCell id="1WofLLIVv_YYoYcuGVh5-5" value="Gateway&lt;br&gt;(动态路由、认证授权、负载均衡)" style="rounded=0;whiteSpace=wrap;html=1;" parent="1" vertex="1">
          <mxGeometry x="460" y="384" width="120" height="60" as="geometry" />
        </mxCell>
        <mxCell id="1WofLLIVv_YYoYcuGVh5-9" value="Eureka&lt;br&gt;(服务注册中心)" style="rounded=0;whiteSpace=wrap;html=1;" parent="1" vertex="1">
          <mxGeometry x="680" y="384" width="120" height="60" as="geometry" />
        </mxCell>
        <mxCell id="1WofLLIVv_YYoYcuGVh5-20" style="edgeStyle=orthogonalEdgeStyle;rounded=0;orthogonalLoop=1;jettySize=auto;html=1;exitX=0.5;exitY=0;exitDx=0;exitDy=0;entryX=0.5;entryY=1;entryDx=0;entryDy=0;" parent="1" source="1WofLLIVv_YYoYcuGVh5-11" target="1WofLLIVv_YYoYcuGVh5-9" edge="1">
          <mxGeometry relative="1" as="geometry" />
        </mxCell>
        <mxCell id="1WofLLIVv_YYoYcuGVh5-23" style="edgeStyle=orthogonalEdgeStyle;rounded=0;orthogonalLoop=1;jettySize=auto;html=1;exitX=1;exitY=0.5;exitDx=0;exitDy=0;entryX=0;entryY=0.5;entryDx=0;entryDy=0;" parent="1" source="1WofLLIVv_YYoYcuGVh5-11" target="1WofLLIVv_YYoYcuGVh5-14" edge="1">
          <mxGeometry relative="1" as="geometry" />
        </mxCell>
        <mxCell id="1WofLLIVv_YYoYcuGVh5-24" value="openFein" style="edgeLabel;html=1;align=center;verticalAlign=middle;resizable=0;points=[];" parent="1WofLLIVv_YYoYcuGVh5-23" vertex="1" connectable="0">
          <mxGeometry x="-0.2" relative="1" as="geometry">
            <mxPoint as="offset" />
          </mxGeometry>
        </mxCell>
        <mxCell id="1WofLLIVv_YYoYcuGVh5-30" style="edgeStyle=orthogonalEdgeStyle;rounded=0;orthogonalLoop=1;jettySize=auto;html=1;exitX=0.5;exitY=0;exitDx=0;exitDy=0;entryX=0.5;entryY=1;entryDx=0;entryDy=0;" parent="1" source="1WofLLIVv_YYoYcuGVh5-11" target="1WofLLIVv_YYoYcuGVh5-25" edge="1">
          <mxGeometry relative="1" as="geometry" />
        </mxCell>
        <mxCell id="1WofLLIVv_YYoYcuGVh5-40" style="edgeStyle=orthogonalEdgeStyle;rounded=0;orthogonalLoop=1;jettySize=auto;html=1;exitX=0.5;exitY=0;exitDx=0;exitDy=0;entryX=0.5;entryY=1;entryDx=0;entryDy=0;" parent="1" source="1WofLLIVv_YYoYcuGVh5-11" target="1WofLLIVv_YYoYcuGVh5-37" edge="1">
          <mxGeometry relative="1" as="geometry" />
        </mxCell>
        <mxCell id="1WofLLIVv_YYoYcuGVh5-51" style="edgeStyle=orthogonalEdgeStyle;rounded=0;orthogonalLoop=1;jettySize=auto;html=1;exitX=0.5;exitY=1;exitDx=0;exitDy=0;" parent="1" source="1WofLLIVv_YYoYcuGVh5-11" target="1WofLLIVv_YYoYcuGVh5-48" edge="1">
          <mxGeometry relative="1" as="geometry" />
        </mxCell>
        <mxCell id="1WofLLIVv_YYoYcuGVh5-52" style="edgeStyle=orthogonalEdgeStyle;rounded=0;orthogonalLoop=1;jettySize=auto;html=1;exitX=0.5;exitY=1;exitDx=0;exitDy=0;" parent="1" source="1WofLLIVv_YYoYcuGVh5-11" target="1WofLLIVv_YYoYcuGVh5-49" edge="1">
          <mxGeometry relative="1" as="geometry" />
        </mxCell>
        <mxCell id="1WofLLIVv_YYoYcuGVh5-53" style="edgeStyle=orthogonalEdgeStyle;rounded=0;orthogonalLoop=1;jettySize=auto;html=1;exitX=0.5;exitY=1;exitDx=0;exitDy=0;entryX=0.5;entryY=0;entryDx=0;entryDy=0;" parent="1" source="1WofLLIVv_YYoYcuGVh5-11" target="1WofLLIVv_YYoYcuGVh5-50" edge="1">
          <mxGeometry relative="1" as="geometry" />
        </mxCell>
        <mxCell id="1WofLLIVv_YYoYcuGVh5-11" value="订单服务" style="rounded=0;whiteSpace=wrap;html=1;" parent="1" vertex="1">
          <mxGeometry x="460" y="510" width="120" height="60" as="geometry" />
        </mxCell>
        <mxCell id="1WofLLIVv_YYoYcuGVh5-19" style="edgeStyle=orthogonalEdgeStyle;rounded=0;orthogonalLoop=1;jettySize=auto;html=1;exitX=0.5;exitY=0;exitDx=0;exitDy=0;entryX=0.5;entryY=1;entryDx=0;entryDy=0;" parent="1" source="1WofLLIVv_YYoYcuGVh5-13" target="1WofLLIVv_YYoYcuGVh5-9" edge="1">
          <mxGeometry relative="1" as="geometry" />
        </mxCell>
        <mxCell id="1WofLLIVv_YYoYcuGVh5-26" style="edgeStyle=orthogonalEdgeStyle;rounded=0;orthogonalLoop=1;jettySize=auto;html=1;exitX=0.5;exitY=0;exitDx=0;exitDy=0;entryX=0.5;entryY=1;entryDx=0;entryDy=0;" parent="1" source="1WofLLIVv_YYoYcuGVh5-13" target="1WofLLIVv_YYoYcuGVh5-25" edge="1">
          <mxGeometry relative="1" as="geometry" />
        </mxCell>
        <mxCell id="1WofLLIVv_YYoYcuGVh5-13" value="授权服务&lt;br&gt;(Auth 2.0 Server)" style="rounded=0;whiteSpace=wrap;html=1;" parent="1" vertex="1">
          <mxGeometry x="240" y="510" width="120" height="60" as="geometry" />
        </mxCell>
        <mxCell id="1WofLLIVv_YYoYcuGVh5-21" style="edgeStyle=orthogonalEdgeStyle;rounded=0;orthogonalLoop=1;jettySize=auto;html=1;exitX=0.5;exitY=0;exitDx=0;exitDy=0;entryX=0.5;entryY=1;entryDx=0;entryDy=0;" parent="1" source="1WofLLIVv_YYoYcuGVh5-14" target="1WofLLIVv_YYoYcuGVh5-9" edge="1">
          <mxGeometry relative="1" as="geometry" />
        </mxCell>
        <mxCell id="1WofLLIVv_YYoYcuGVh5-29" style="edgeStyle=orthogonalEdgeStyle;rounded=0;orthogonalLoop=1;jettySize=auto;html=1;exitX=0.5;exitY=0;exitDx=0;exitDy=0;entryX=0.5;entryY=1;entryDx=0;entryDy=0;" parent="1" source="1WofLLIVv_YYoYcuGVh5-14" target="1WofLLIVv_YYoYcuGVh5-25" edge="1">
          <mxGeometry relative="1" as="geometry" />
        </mxCell>
        <mxCell id="1WofLLIVv_YYoYcuGVh5-38" style="edgeStyle=orthogonalEdgeStyle;rounded=0;orthogonalLoop=1;jettySize=auto;html=1;exitX=0.5;exitY=0;exitDx=0;exitDy=0;entryX=0.5;entryY=1;entryDx=0;entryDy=0;" parent="1" source="1WofLLIVv_YYoYcuGVh5-14" target="1WofLLIVv_YYoYcuGVh5-37" edge="1">
          <mxGeometry relative="1" as="geometry" />
        </mxCell>
        <mxCell id="1WofLLIVv_YYoYcuGVh5-54" style="edgeStyle=orthogonalEdgeStyle;rounded=0;orthogonalLoop=1;jettySize=auto;html=1;exitX=0.5;exitY=1;exitDx=0;exitDy=0;entryX=0.5;entryY=0;entryDx=0;entryDy=0;" parent="1" source="1WofLLIVv_YYoYcuGVh5-14" target="1WofLLIVv_YYoYcuGVh5-50" edge="1">
          <mxGeometry relative="1" as="geometry" />
        </mxCell>
        <mxCell id="1WofLLIVv_YYoYcuGVh5-55" style="edgeStyle=orthogonalEdgeStyle;rounded=0;orthogonalLoop=1;jettySize=auto;html=1;exitX=0.5;exitY=1;exitDx=0;exitDy=0;" parent="1" source="1WofLLIVv_YYoYcuGVh5-14" target="1WofLLIVv_YYoYcuGVh5-49" edge="1">
          <mxGeometry relative="1" as="geometry" />
        </mxCell>
        <mxCell id="1WofLLIVv_YYoYcuGVh5-56" style="edgeStyle=orthogonalEdgeStyle;rounded=0;orthogonalLoop=1;jettySize=auto;html=1;exitX=0.5;exitY=1;exitDx=0;exitDy=0;entryX=0.5;entryY=0;entryDx=0;entryDy=0;" parent="1" source="1WofLLIVv_YYoYcuGVh5-14" target="1WofLLIVv_YYoYcuGVh5-48" edge="1">
          <mxGeometry relative="1" as="geometry" />
        </mxCell>
        <mxCell id="1WofLLIVv_YYoYcuGVh5-14" value="其他服务..." style="rounded=0;whiteSpace=wrap;html=1;" parent="1" vertex="1">
          <mxGeometry x="680" y="510" width="120" height="60" as="geometry" />
        </mxCell>
        <mxCell id="1WofLLIVv_YYoYcuGVh5-25" value="Apollo&lt;br&gt;(配置中心)" style="rounded=0;whiteSpace=wrap;html=1;" parent="1" vertex="1">
          <mxGeometry x="870" y="384" width="120" height="60" as="geometry" />
        </mxCell>
        <mxCell id="1WofLLIVv_YYoYcuGVh5-37" value="RabbitMQ&lt;br&gt;（集群）" style="rounded=0;whiteSpace=wrap;html=1;" parent="1" vertex="1">
          <mxGeometry x="1060" y="384" width="120" height="60" as="geometry" />
        </mxCell>
        <mxCell id="1WofLLIVv_YYoYcuGVh5-43" value="客户端" style="text;html=1;align=center;verticalAlign=middle;whiteSpace=wrap;rounded=0;" parent="1" vertex="1">
          <mxGeometry x="320" y="90" width="60" height="30" as="geometry" />
        </mxCell>
        <mxCell id="1WofLLIVv_YYoYcuGVh5-45" value="应用服务" style="text;html=1;align=center;verticalAlign=middle;whiteSpace=wrap;rounded=0;" parent="1" vertex="1">
          <mxGeometry x="220" y="480" width="60" height="30" as="geometry" />
        </mxCell>
        <mxCell id="1WofLLIVv_YYoYcuGVh5-47" value="接入层" style="text;html=1;align=center;verticalAlign=middle;whiteSpace=wrap;rounded=0;" parent="1" vertex="1">
          <mxGeometry x="440" y="240" width="60" height="30" as="geometry" />
        </mxCell>
        <mxCell id="1WofLLIVv_YYoYcuGVh5-60" style="edgeStyle=orthogonalEdgeStyle;rounded=0;orthogonalLoop=1;jettySize=auto;html=1;exitX=0.5;exitY=1;exitDx=0;exitDy=0;" parent="1" source="1WofLLIVv_YYoYcuGVh5-48" target="1WofLLIVv_YYoYcuGVh5-59" edge="1">
          <mxGeometry relative="1" as="geometry" />
        </mxCell>
        <mxCell id="1WofLLIVv_YYoYcuGVh5-62" value="监控binlog" style="edgeLabel;html=1;align=center;verticalAlign=middle;resizable=0;points=[];" parent="1WofLLIVv_YYoYcuGVh5-60" vertex="1" connectable="0">
          <mxGeometry x="-0.2" y="1" relative="1" as="geometry">
            <mxPoint as="offset" />
          </mxGeometry>
        </mxCell>
        <mxCell id="1WofLLIVv_YYoYcuGVh5-48" value="MySQL&lt;br&gt;（主从集群）" style="rounded=0;whiteSpace=wrap;html=1;" parent="1" vertex="1">
          <mxGeometry x="230" y="660" width="120" height="60" as="geometry" />
        </mxCell>
        <mxCell id="1WofLLIVv_YYoYcuGVh5-49" value="ES&lt;br&gt;（主从集群）" style="rounded=0;whiteSpace=wrap;html=1;" parent="1" vertex="1">
          <mxGeometry x="460" y="660" width="120" height="60" as="geometry" />
        </mxCell>
        <mxCell id="1WofLLIVv_YYoYcuGVh5-50" value="Redis&lt;br&gt;（哨兵集群）" style="rounded=0;whiteSpace=wrap;html=1;" parent="1" vertex="1">
          <mxGeometry x="680" y="660" width="120" height="60" as="geometry" />
        </mxCell>
        <mxCell id="1WofLLIVv_YYoYcuGVh5-58" value="存储层" style="text;html=1;align=center;verticalAlign=middle;whiteSpace=wrap;rounded=0;" parent="1" vertex="1">
          <mxGeometry x="210" y="630" width="60" height="30" as="geometry" />
        </mxCell>
        <mxCell id="1WofLLIVv_YYoYcuGVh5-61" style="edgeStyle=orthogonalEdgeStyle;rounded=0;orthogonalLoop=1;jettySize=auto;html=1;exitX=1;exitY=0.5;exitDx=0;exitDy=0;entryX=0.5;entryY=1;entryDx=0;entryDy=0;" parent="1" source="1WofLLIVv_YYoYcuGVh5-59" target="1WofLLIVv_YYoYcuGVh5-49" edge="1">
          <mxGeometry relative="1" as="geometry" />
        </mxCell>
        <mxCell id="1WofLLIVv_YYoYcuGVh5-63" value="同步到ES" style="edgeLabel;html=1;align=center;verticalAlign=middle;resizable=0;points=[];" parent="1WofLLIVv_YYoYcuGVh5-61" vertex="1" connectable="0">
          <mxGeometry x="-0.128" y="-1" relative="1" as="geometry">
            <mxPoint as="offset" />
          </mxGeometry>
        </mxCell>
        <mxCell id="1WofLLIVv_YYoYcuGVh5-59" value="Cannal Server&lt;br&gt;(数据同步)" style="rounded=0;whiteSpace=wrap;html=1;" parent="1" vertex="1">
          <mxGeometry x="230" y="780" width="120" height="60" as="geometry" />
        </mxCell>
        <mxCell id="1WofLLIVv_YYoYcuGVh5-65" value="K8S集群" style="text;html=1;align=center;verticalAlign=middle;whiteSpace=wrap;rounded=0;" parent="1" vertex="1">
          <mxGeometry x="160" y="220" width="60" height="30" as="geometry" />
        </mxCell>
        <mxCell id="1WofLLIVv_YYoYcuGVh5-66" value="ELK&lt;br&gt;(日志收集，查看)" style="rounded=0;whiteSpace=wrap;html=1;" parent="1" vertex="1">
          <mxGeometry x="940" y="520" width="120" height="60" as="geometry" />
        </mxCell>
        <mxCell id="1WofLLIVv_YYoYcuGVh5-67" value="Skyworking&lt;br&gt;（链路跟踪、APM监控）" style="rounded=0;whiteSpace=wrap;html=1;" parent="1" vertex="1">
          <mxGeometry x="940" y="600" width="120" height="60" as="geometry" />
        </mxCell>
        <mxCell id="1WofLLIVv_YYoYcuGVh5-68" value="Promethous&lt;br&gt;(服务监控)" style="rounded=0;whiteSpace=wrap;html=1;" parent="1" vertex="1">
          <mxGeometry x="940" y="680" width="120" height="60" as="geometry" />
        </mxCell>
        <mxCell id="1WofLLIVv_YYoYcuGVh5-70" value="监控及日志" style="text;html=1;align=center;verticalAlign=middle;whiteSpace=wrap;rounded=0;" parent="1" vertex="1">
          <mxGeometry x="930" y="490" width="70" height="30" as="geometry" />
        </mxCell>
      </root>
    </mxGraphModel>
  </diagram>
</mxfile>
